# xmcd
#
# Track frame offsets: 
#        150
#        21046
#        45749
#        68351
#        97263
#        114685
#        139898
#        163612
#
# Disc length: 2618 seconds
#
# Revision: 1
# Processed by: cddbd v1.5.2PL0 Copyright (c) Steve Scherf et al.
# Submitted via: ExactAudioCopy v1.3
#
DISCID=690a3808
DTITLE=Corey Stevens - Myth Live [disk 2]
DYEAR=2008
DGENRE=Blues Rock
TTITLE0=Lonesome Road Blues
TTITLE1=My Love For You Has Died
TTITLE2=Mean And Lean
TTITLE3=Aloha Peke
TTITLE4=Big House Blues
TTITLE5=My Neighborhood
TTITLE6=One More Time
TTITLE7=Too Much Fun?
EXTD=
EXTT0=
EXTT1=
EXTT2=
EXTT3=
EXTT4=
EXTT5=
EXTT6=
EXTT7=
PLAYORDER=
